<svg width="51" height="47" viewBox="0 0 51 47" fill="none" xmlns="http://www.w3.org/2000/svg">
<path d="M25.5 11.9254C27.2595 11.9254 28.7385 12.5229 29.988 13.7441C31.2375 14.9652 31.875 16.524 31.875 18.4207C31.875 21.1487 30.6 23.1233 28.05 24.3444V47H22.95V24.3444C20.4 23.1233 19.125 21.1487 19.125 18.4207C19.125 16.524 19.788 14.9652 21.012 13.7441C22.236 12.5229 23.7405 11.9254 25.5 11.9254ZM37.4595 6.20951C40.647 9.45716 42.3555 13.5102 42.585 18.4207C42.585 23.0973 40.8765 27.2023 37.4595 30.6838L34.425 27.5141C36.975 25.1498 38.25 22.11 38.25 18.4207C38.25 14.9652 36.975 11.9254 34.425 9.32725L37.4595 6.20951ZM10.4295 3.0398C6.375 7.17081 4.335 12.2891 4.335 18.4207C4.335 24.5522 6.375 29.5926 10.4295 33.7236L7.446 36.8933C2.55 31.6191 0 25.4356 0 18.4207C0 11.4057 2.55 5.27418 7.446 0L10.4295 3.0398ZM43.554 0C48.45 5.27418 51 11.4057 51 18.4207C51 25.6954 48.45 31.853 43.554 36.8933L40.5705 33.7236C44.625 29.5926 46.665 24.4743 46.665 18.4207C46.665 12.3671 44.625 7.17081 40.5705 3.0398L43.554 0ZM13.5405 6.20951L16.575 9.32725C14.025 11.7175 12.75 14.7313 12.75 18.4207C12.75 21.8762 14.025 24.916 16.575 27.5141L13.5405 30.6838C10.1235 27.2023 8.415 23.0973 8.415 18.4207C8.415 13.7441 10.1235 9.69099 13.5405 6.20951Z" fill="#9747FF"/>
</svg>
