<svg width="48" height="47" viewBox="0 0 48 47" fill="none" xmlns="http://www.w3.org/2000/svg">
<path d="M34.464 28.2C34.656 26.649 34.8 25.098 34.8 23.5C34.8 21.902 34.656 20.351 34.464 18.8H42.576C42.96 20.304 43.2 21.8785 43.2 23.5C43.2 25.1215 42.96 26.696 42.576 28.2M30.216 41.266C31.656 38.6575 32.76 35.8375 33.528 32.9H40.608C38.304 36.7775 34.632 39.7855 30.216 41.266ZM29.616 28.2H18.384C18.144 26.649 18 25.098 18 23.5C18 21.902 18.144 20.3275 18.384 18.8H29.616C29.832 20.3275 30 21.902 30 23.5C30 25.098 29.832 26.649 29.616 28.2ZM24 42.206C22.008 39.386 20.4 36.2605 19.416 32.9H28.584C27.6 36.2605 25.992 39.386 24 42.206ZM14.4 14.1H7.392C9.672 10.199 13.368 7.191 17.76 5.734C16.32 8.3425 15.24 11.1625 14.4 14.1ZM7.392 32.9H14.4C15.24 35.8375 16.32 38.6575 17.76 41.266C13.368 39.7855 9.672 36.7775 7.392 32.9ZM5.424 28.2C5.04 26.696 4.8 25.1215 4.8 23.5C4.8 21.8785 5.04 20.304 5.424 18.8H13.536C13.344 20.351 13.2 21.902 13.2 23.5C13.2 25.098 13.344 26.649 13.536 28.2M24 4.7705C25.992 7.5905 27.6 10.7395 28.584 14.1H19.416C20.4 10.7395 22.008 7.5905 24 4.7705ZM40.608 14.1H33.528C32.76 11.1625 31.656 8.3425 30.216 5.734C34.632 7.2145 38.304 10.199 40.608 14.1ZM24 0C10.728 0 0 10.575 0 23.5C0 29.7326 2.52856 35.7099 7.02944 40.117C9.25804 42.2992 11.9038 44.0302 14.8156 45.2112C17.7274 46.3922 20.8483 47 24 47C30.3652 47 36.4697 44.5241 40.9706 40.117C45.4714 35.7099 48 29.7326 48 23.5C48 20.4139 47.3792 17.3581 46.1731 14.5069C44.967 11.6558 43.1992 9.06517 40.9706 6.88299C38.742 4.70081 36.0962 2.96982 33.1844 1.78883C30.2726 0.607846 27.1517 0 24 0Z" fill="url(#paint0_linear_64_258)"/>
<defs>
<linearGradient id="paint0_linear_64_258" x1="24" y1="0" x2="24" y2="47" gradientUnits="userSpaceOnUse">
<stop offset="0.00312487" stop-color="#90C3FF"/>
<stop offset="0.51875" stop-color="#178FFE"/>
<stop offset="1" stop-color="#08209E"/>
</linearGradient>
</defs>
</svg>
